<svg width="279" height="50" viewBox="0 0 279 50" fill="none" xmlns="http://www.w3.org/2000/svg">
<rect x="129" width="150" height="50" rx="3" fill="#D31318"/>
<path d="M147.368 33.93C149.288 35.58 151.748 36.33 154.118 36.33C158.678 36.33 161.648 33.6 161.648 29.07V21.48C161.648 16.98 158.648 14.22 154.208 14.22C151.928 14.22 149.678 14.97 147.848 16.41C147.698 16.5 147.698 16.62 147.788 16.74L148.388 17.61C148.478 17.76 148.598 17.76 148.748 17.67C150.338 16.44 152.288 15.78 154.238 15.78C158.018 15.78 159.998 18.15 159.998 21.48V24.51H150.698C150.548 24.51 150.428 24.6 150.428 24.78V25.83C150.428 25.98 150.548 26.07 150.698 26.07H159.998V29.07C159.998 32.43 157.988 34.77 154.178 34.77C152.048 34.77 149.948 34.05 148.268 32.64C148.118 32.52 147.998 32.55 147.908 32.7L147.308 33.57C147.218 33.69 147.218 33.81 147.368 33.93ZM181.086 24.33H169.716V14.79C169.716 14.64 169.626 14.55 169.476 14.55H168.306C168.156 14.55 168.066 14.64 168.066 14.79V35.76C168.066 35.91 168.156 36 168.306 36H169.476C169.626 36 169.716 35.91 169.716 35.76V25.86H181.086V35.76C181.086 35.91 181.176 36 181.326 36H182.466C182.646 36 182.736 35.91 182.736 35.76V14.79C182.736 14.64 182.646 14.55 182.466 14.55H181.326C181.176 14.55 181.086 14.64 181.086 14.79V24.33ZM191.519 25.83H201.359C201.509 25.83 201.599 25.74 201.599 25.59V24.57C201.599 24.39 201.509 24.3 201.359 24.3H191.519V16.08H201.989C202.169 16.08 202.259 15.99 202.259 15.84V14.79C202.259 14.64 202.169 14.55 201.989 14.55H190.109C189.959 14.55 189.869 14.64 189.869 14.79V35.76C189.869 35.91 189.959 36 190.109 36H202.439C202.589 36 202.679 35.91 202.679 35.76V34.71C202.679 34.56 202.589 34.47 202.439 34.47H191.519V25.83ZM208.748 14.55C208.568 14.55 208.478 14.64 208.478 14.79V35.76C208.478 35.91 208.568 36 208.748 36H209.888C210.038 36 210.128 35.91 210.128 35.76V28.05H215.648C220.328 28.05 222.998 25.59 222.998 21.3C222.998 17.1 220.358 14.55 215.648 14.55H208.748ZM210.128 26.52V16.08H215.468C219.368 16.08 221.348 17.91 221.348 21.3C221.348 24.72 219.368 26.52 215.468 26.52H210.128ZM229.904 36C230.054 36 230.174 35.91 230.174 35.76V16.08H240.134C240.284 16.08 240.374 15.99 240.374 15.84V14.79C240.374 14.64 240.284 14.55 240.134 14.55H228.764C228.614 14.55 228.494 14.64 228.494 14.79V35.76C228.494 35.91 228.614 36 228.764 36H229.904ZM259.764 28.95V21.78C259.764 17.22 256.674 14.22 251.814 14.22C246.924 14.22 243.834 17.22 243.834 21.78V28.95C243.834 33.3 246.954 36.33 251.814 36.33C256.644 36.33 259.764 33.3 259.764 28.95ZM245.484 28.95V21.78C245.484 18.12 247.884 15.78 251.814 15.78C255.714 15.78 258.114 18.12 258.114 21.78V28.95C258.114 32.4 255.714 34.77 251.814 34.77C247.884 34.77 245.484 32.4 245.484 28.95Z" fill="white"/>
<path d="M23.96 40C24.16 40 24.28 39.88 24.28 39.68V11.72C24.28 11.52 24.16 11.4 23.96 11.4H22.2C22.04 11.4 21.88 11.48 21.8 11.64L8.64 32.04C7.72 33.52 6.72 35.12 5.88 36.6L5.8 36.48C5.88 33.16 5.96 29.16 5.96 25.84V11.72C5.96 11.52 5.8 11.4 5.6 11.4H4.08C3.88 11.4 3.76 11.52 3.76 11.72V39.68C3.76 39.88 3.88 40 4.08 40H5.84C6 40 6.16 39.92 6.24 39.8L19.52 19.4C20.4 18.04 21.36 16.4 22.16 15L22.2 15.04C22.16 18 22.08 22.04 22.08 25V39.68C22.08 39.88 22.24 40 22.44 40H23.96ZM51.1669 24.44H36.0069V11.72C36.0069 11.52 35.8869 11.4 35.6869 11.4H34.1269C33.9269 11.4 33.8069 11.52 33.8069 11.72V39.68C33.8069 39.88 33.9269 40 34.1269 40H35.6869C35.8869 40 36.0069 39.88 36.0069 39.68V26.48H51.1669V39.68C51.1669 39.88 51.2869 40 51.4869 40H53.0069C53.2469 40 53.3669 39.88 53.3669 39.68V11.72C53.3669 11.52 53.2469 11.4 53.0069 11.4H51.4869C51.2869 11.4 51.1669 11.52 51.1669 11.72V24.44ZM64.7572 40C64.9572 40 65.0772 39.88 65.0772 39.68V29.24L68.5172 25.84L80.3172 39.8C80.3972 39.96 80.5572 40 80.7172 40H82.7572C83.0372 40 83.1572 39.84 82.9572 39.6L69.9972 24.28L82.1972 11.8C82.3972 11.6 82.2772 11.4 81.9972 11.4H79.9572C79.7972 11.4 79.6772 11.48 79.5172 11.6L65.0772 26.4V11.72C65.0772 11.52 64.9572 11.4 64.7572 11.4H63.1972C62.9972 11.4 62.8772 11.52 62.8772 11.72V39.68C62.8772 39.88 62.9972 40 63.1972 40H64.7572ZM107.93 30.6V21.04C107.93 14.96 103.81 10.96 97.3297 10.96C90.8097 10.96 86.6897 14.96 86.6897 21.04V30.6C86.6897 36.4 90.8497 40.44 97.3297 40.44C103.77 40.44 107.93 36.4 107.93 30.6ZM88.8897 30.6V21.04C88.8897 16.16 92.0897 13.04 97.3297 13.04C102.53 13.04 105.73 16.16 105.73 21.04V30.6C105.73 35.2 102.53 38.36 97.3297 38.36C92.0897 38.36 88.8897 35.2 88.8897 30.6Z" fill="white"/>
</svg>
